<svg width="11" height="11" viewBox="0 0 11 11" fill="none" xmlns="http://www.w3.org/2000/svg">
<g clip-path="url(#clip0_1_59)">
<path d="M7.35304 6.41666H3.64696C3.04462 6.41739 2.46716 6.65699 2.04124 7.08291C1.61533 7.50883 1.37573 8.08629 1.375 8.68862V11H9.625V8.68862C9.62427 8.08629 9.38467 7.50883 8.95876 7.08291C8.53284 6.65699 7.95538 6.41739 7.35304 6.41666Z" fill="#333C31" fill-opacity="0.5"/>
<path d="M5.5 5.5C7.01878 5.5 8.25 4.26878 8.25 2.75C8.25 1.23122 7.01878 0 5.5 0C3.98122 0 2.75 1.23122 2.75 2.75C2.75 4.26878 3.98122 5.5 5.5 5.5Z" fill="#333C31" fill-opacity="0.5"/>
</g>
<defs>
<clipPath id="clip0_1_59">
<rect width="11" height="11" fill="white"/>
</clipPath>
</defs>
</svg>
